<svg version="1" xmlns="http://www.w3.org/2000/svg" width="933.333" height="933.333" viewBox="0 0 700.000000 700.000000"><path d="M192 88.2c-1.3 5.1-5.5 20.6-8 29.8-1 3.6-5.1 18.6-9 33.5-4 14.8-10.8 40.3-15.2 56.5-4.4 16.2-8.1 30.2-8.3 31-.5 2-3.8 14.3-18.6 69-3.1 11.8-6.9 26-8.4 31.5-3.5 13.1-3.6 13.5-15.8 59.5-5.8 21.7-11.8 44-13.2 49.5C94 454 91.1 465 89 473c-7 26.2-7.8 29.5-7.7 31.2 0 2 .8 2.3 2.3.9.7-.7 10-3.8 13.9-4.6.6-.2 12-3.7 25.5-7.8 13.5-4.2 45-13.7 70-21.2 58.6-17.5 65-19.4 86-25.5 9.6-2.8 21.1-6.2 25.5-7.5 16.7-5 71.9-21.1 78-22.8 1.1-.3 10.6-3.1 21-6.2 21.4-6.3 21.8-6.4 74-21.7 20.9-6.1 38.7-11.8 39.7-12.7 1.3-1.3 17.1-28.3 40.8-69.6 20.9-36.5 46.1-81.5 59.9-106.8l4.2-7.7H516.3l-105.8.1-11.1 10.7c-6.1 5.9-18 17.2-26.5 25.2-8.4 8-19.4 18.3-24.3 23-4.9 4.7-10.1 9.6-11.6 11-1.5 1.4-9.6 9.1-18.1 17.1-8.5 8.1-17 16.1-18.9 17.9-1.9 1.8-10.9 10.3-19.9 18.9-9.1 8.6-17.6 16.7-19.1 18.1-1.5 1.4-10.3 9.7-19.6 18.6-9.3 8.9-18.6 17.7-20.6 19.6-2 1.9-11.9 11.3-21.9 20.9-10 9.5-19.6 18.7-21.4 20.4-10.7 10.1-62.9 60.2-81.4 78.2-7.5 7.2-13.8 13-14 12.8-.3-.4 2.9-5.6 13.9-22.4 6.8-10.5 19-29.5 23.1-35.9 1.9-3.1 9.5-15.1 16.8-26.6 11.9-18.8 52-83.2 85.1-136.6 6.9-11.3 15.5-25.1 19.1-30.8 3.5-5.6 6.9-11 7.4-12 .6-.9 2.2-3.5 3.6-5.7 13-20.1 15.7-25.3 14.6-27.3-.7-1.2-4.4-7.4-8.3-13.9-4-6.5-14.3-24.2-22.9-39.3-26.1-45.7-40-69-41.1-69-.2 0-.8 1.9-1.4 4.2zM419.7 493.7c-.1.1-9 .4-19.7.8s-23.3.8-28 1c-4.7.2-17 .6-27.5.9-10.4.4-25.3.9-33 1.1-7.7.3-20.3.8-28 1-7.7.3-20.5.7-28.5 1-8 .3-21.9.7-31 1-16.4.6-28.2 1-56 2-8 .3-20.3.7-27.5 1-7.1.3-20 .8-28.5 1.1-8.5.4-18.1.7-21.2.8-3.1 0-5.9.4-6.2.7-.3.3 2 1.3 5.1 2.2 12.8 3.6 24.9 6.9 26.7 7.3 1.1.2 4 1 6.5 1.8 2.5.7 8.4 2.4 13.1 3.6 4.7 1.2 11.4 3.1 15 4.1 3.6 1 9.9 2.7 14 3.8 4.1 1.1 15.2 4 24.5 6.6 9.4 2.5 21.1 5.7 26 7 21.4 5.7 129 34.8 137 37 2.8.8 12 3.3 20.5 5.6s19.6 5.3 24.5 6.6c5 1.4 9.7 2.6 10.5 2.8.8.2 5.6 1.5 10.5 2.9 19.7 5.4 83.4 22.6 83.8 22.6.5 0-1.3-3.4-12.8-24.5-11.7-21.4-38.8-68-50.9-87.5-4.2-6.7-7.6-12.6-7.6-13.1s-.8-.9-1.7-1c-4.2-.3-9.5-.4-9.6-.2z"/></svg>